<svg width="505" height="809" viewBox="0 0 505 809" fill="none" xmlns="http://www.w3.org/2000/svg">
<g opacity="0.2">
<path fill-rule="evenodd" clip-rule="evenodd" d="M275 523C402.025 523 505 420.025 505 293C505 165.975 402.025 63 275 63C147.975 63 45 165.975 45 293C45 420.025 147.975 523 275 523Z" fill="#FF9B21"/>
<path fill-rule="evenodd" clip-rule="evenodd" d="M415 809C437.644 809 456 790.644 456 768C456 745.356 437.644 727 415 727C392.356 727 374 745.356 374 768C374 790.644 392.356 809 415 809Z" fill="#2B44FF"/>
<path fill-rule="evenodd" clip-rule="evenodd" d="M237 0L286 49L237 98L188 49L237 0Z" fill="#2B44FF"/>
<path fill-rule="evenodd" clip-rule="evenodd" d="M101 690L125 714L101 738L77 714L101 690Z" fill="#FF9B21"/>
<path fill-rule="evenodd" clip-rule="evenodd" d="M448 63L460 75L448 87L436 75L448 63Z" fill="#2026A2"/>
</g>
<path fill-rule="evenodd" clip-rule="evenodd" d="M309.005 343.655C302.913 348.429 296.685 351.14 293.556 350.731C285.709 349.708 281.603 321.973 286.147 310.28C290.69 298.587 320.362 290.08 324.548 311.623C326.001 319.1 323.657 326.221 319.649 332.29L332.829 370.362L308.452 373.364L309.005 343.655Z" fill="#B28B67"/>
<path fill-rule="evenodd" clip-rule="evenodd" d="M304.448 316.535C301.955 313.656 299.638 311.511 296.834 310.445C286.138 311.934 284.648 310.168 283.856 303.694C285.435 302.242 291.287 299.405 298.055 297.976C301.422 296.548 305.578 296.227 309.764 297.402C314.85 298.191 319.38 300.681 321.906 306.076C329.962 316.733 326.376 329.3 320.073 334.218C317.999 332.296 316.164 330.412 314.511 328.596C315.508 327.35 316.022 325.719 315.813 324.011C315.401 320.646 312.339 318.255 308.973 318.669C308.725 318.699 308.483 318.744 308.247 318.802C308.611 323.028 309.73 337.338 308.698 342.484C307.481 348.551 296.393 351.369 292.465 351.853C289.072 352.27 288.795 349.044 288.596 346.732C288.567 346.399 288.54 346.085 288.506 345.803C288.434 345.215 289.199 345.123 290.063 345.018C291.186 344.882 292.477 344.726 292.319 343.438C292.147 342.034 290.075 341.197 288.221 340.447C287.065 339.98 285.993 339.546 285.52 339.031C284.029 337.406 283.305 335.056 285.226 334.819C286.276 334.69 287.791 335.118 289.613 335.632C292.365 336.409 295.817 337.384 299.429 336.939C305.397 336.204 304.46 316.778 304.448 316.535Z" fill="#191847"/>
<path fill-rule="evenodd" clip-rule="evenodd" d="M350.013 456.483L312.528 585.624L294.896 682.585H277.2L294.865 456.483H350.013Z" fill="#997659"/>
<path fill-rule="evenodd" clip-rule="evenodd" d="M366.86 456.483C364.244 523.571 365.276 560.163 365.861 566.258C366.446 572.353 369.77 613.175 392.417 684.631H374.011C344.019 616.081 333.549 575.259 330.109 566.258C326.669 557.257 316.51 520.665 301.678 456.483H366.86Z" fill="#B28B67"/>
<path fill-rule="evenodd" clip-rule="evenodd" d="M350.818 456.483C341.067 500.921 324.203 571.855 300.225 669.284H274.342C272.43 569.282 280.563 503.464 294.646 456.483H350.818Z" fill="#69A1AC"/>
<path fill-rule="evenodd" clip-rule="evenodd" d="M366.991 456.483C364.429 523.571 371.068 589.665 391.632 670.329H364.016C333.969 602.802 312.433 537.034 297.715 456.483H366.991Z" fill="#89C5CC"/>
<path fill-rule="evenodd" clip-rule="evenodd" d="M395.04 697.931L394.102 682.811C394.062 682.17 393.44 681.732 392.812 681.867C383.941 683.766 371.682 679.515 371.682 679.515C359.335 688.259 341.521 692.258 335.319 693.443C334.137 693.669 333.38 694.861 333.708 696.019L335.121 701H371.682H393.009L395.04 697.931Z" fill="#191847"/>
<path fill-rule="evenodd" clip-rule="evenodd" d="M298.847 697.931L297.909 682.811C297.869 682.17 297.246 681.732 296.619 681.867C287.747 683.766 275.488 679.515 275.488 679.515C263.142 688.259 245.328 692.258 239.125 693.443C237.944 693.669 237.186 694.861 237.515 696.019L238.927 701H275.488H296.816L298.847 697.931Z" fill="#191847"/>
<path fill-rule="evenodd" clip-rule="evenodd" d="M234.085 479.038L263.573 451.262L272.902 468.081L242.446 485.333C234.677 497.106 230.147 502.173 228.856 500.534C227.768 499.152 228.304 497.666 228.799 496.298C229.184 495.232 229.543 494.237 229.088 493.418C228.05 491.547 221.981 492.504 216.259 493.66C210.538 494.815 211.906 492.038 213.144 490.598C218.608 486.344 225.588 482.491 234.085 479.038ZM409.125 500.025C405.409 494.355 388.07 436.764 388.07 436.764L366.854 439.461C366.854 439.461 394.28 500.487 396.323 504.176C398.975 508.968 396.415 516.721 394.679 521.978C394.41 522.791 394.161 523.545 393.955 524.218C397.386 525.273 398.733 523.322 400.153 521.264C401.758 518.941 403.455 516.482 408.354 518.067C410.247 518.679 412.062 519.455 413.835 520.214C419.96 522.832 425.587 525.238 432.194 519.95C433.241 519.111 434.16 516.327 430.909 514.64C422.809 510.437 410.941 502.797 409.125 500.025Z" fill="#B28B67"/>
<path fill-rule="evenodd" clip-rule="evenodd" d="M316.849 355.149L307.882 354.725C278.74 386.882 271.974 442.597 235.537 476.158L246.61 486.888C314.855 469.777 323.957 401.713 316.849 355.149Z" fill="#E87613"/>
<path fill-rule="evenodd" clip-rule="evenodd" d="M368.645 460.782C368.645 460.782 315.821 467.287 290.932 470.352C287.381 470.789 287.423 465.58 287.619 462.93C289.889 432.346 309.076 397.316 303.873 354.818L325.859 348.544C348.05 376.072 358.955 411.988 368.645 460.782Z" fill="#DDE3E9"/>
<path fill-rule="evenodd" clip-rule="evenodd" d="M355.04 374.34C359.083 373.546 362.556 371.387 364.369 366.902C370.753 351.113 366.798 343.34 357.715 341.743C352.72 340.865 348.314 342.427 343.041 344.296C338.724 345.826 333.826 347.562 327.547 348.336C326.939 348.411 326.39 348.52 325.897 348.659L318.511 350C318.511 350 300.838 456.047 318.569 488.595L379.994 481.03C384.513 488.986 388.834 495.882 392.749 501.106L409.416 499.053C404.113 440.869 376.703 398.971 355.04 374.34Z" fill="#FF9B21"/>
<path fill-rule="evenodd" clip-rule="evenodd" d="M379.994 481.03C374.064 470.591 367.793 458.327 361.647 445.62C361.752 460.434 360.745 475.45 357.036 483.857L379.994 481.03Z" fill="black" fill-opacity="0.1"/>
<path fill-rule="evenodd" clip-rule="evenodd" d="M143 196.707C154.429 196.707 158.585 183.024 165.079 175.515C169.724 170.143 177.653 171.745 180 164.224C185.902 145.311 170.106 132 149.5 132C128.894 132 115 143.674 112 161.224C109 178.773 122.394 196.707 143 196.707Z" fill="#191847"/>
<path fill-rule="evenodd" clip-rule="evenodd" d="M155.935 194.244C162.411 198.147 168.774 200.033 171.76 199.263C179.25 197.333 179.938 169.935 174.143 159.134C168.349 148.333 138.558 143.625 137.057 165.025C136.536 172.453 139.654 179.081 144.262 184.49L136 223H160L155.935 194.244Z" fill="#B28B67"/>
<path fill-rule="evenodd" clip-rule="evenodd" d="M138.617 150C120.234 168 138.687 187.132 143.743 187.132C144.07 184.535 145.065 182.008 146.524 179.604C145.749 178.6 145.29 177.352 145.29 176C145.29 172.686 148.046 170 151.447 170C152.509 170 153.508 170.262 154.38 170.723C161.75 164.438 170.993 160.056 175.583 159.195C183.566 157.696 157 132 138.617 150Z" fill="#191847"/>
<path fill-rule="evenodd" clip-rule="evenodd" d="M128 306L165.631 429.024L183.86 533.648H198.153L178.891 306H128Z" fill="#997659"/>
<path fill-rule="evenodd" clip-rule="evenodd" d="M114.538 306C117.094 373.547 114.086 408.389 113.514 414.526C112.942 420.663 105.108 460.455 86.5637 535.708L101.794 530.478C131.102 461.459 141.089 425.589 144.45 416.526C147.812 407.463 156.739 370.621 171.233 306H114.538Z" fill="#B28B67"/>
<path fill-rule="evenodd" clip-rule="evenodd" d="M89.4496 529.284C88.3779 528.813 87.1043 529.29 86.7051 530.391C85.977 532.398 85 535.409 85 537.106C85 539.811 85.9012 545 85.9012 545C89.0392 545 142.303 545 142.303 545C142.303 545 144.502 537.732 139.765 537.152C135.028 536.573 131.895 536.106 131.895 536.106L105.68 524.419C105.165 524.189 104.563 524.43 104.348 524.951L102.663 529.039C102.663 529.039 98.2782 531.085 95.5367 531.085C93.8677 531.085 91.2457 530.074 89.4496 529.284Z" fill="#E4E4E4"/>
<path fill-rule="evenodd" clip-rule="evenodd" d="M183.45 529.284C182.378 528.813 181.104 529.29 180.705 530.391C179.977 532.398 179 535.409 179 537.106C179 539.811 179.901 545 179.901 545C183.039 545 236.303 545 236.303 545C236.303 545 238.502 537.732 233.765 537.152C229.028 536.573 225.895 536.106 225.895 536.106L199.68 524.419C199.165 524.189 198.563 524.43 198.348 524.951L196.663 529.039C196.663 529.039 192.278 531.085 189.537 531.085C187.868 531.085 185.246 530.074 183.45 529.284Z" fill="#E4E4E4"/>
<path fill-rule="evenodd" clip-rule="evenodd" d="M123 306L139 368.68H187.87L180.584 306H123Z" fill="#69A1AC"/>
<path fill-rule="evenodd" clip-rule="evenodd" d="M114 306C106.103 329.671 111 368.68 111 368.68H160.87L174.584 306H114Z" fill="#89C5CC"/>
<path fill-rule="evenodd" clip-rule="evenodd" d="M244.372 317.758L216.044 290.123L206.636 306.402L236.093 323.77C243.479 335.405 247.817 340.432 249.107 338.852C250.195 337.519 249.696 336.058 249.237 334.713C248.879 333.665 248.545 332.687 249.004 331.894C250.051 330.082 255.965 331.119 261.535 332.344C267.105 333.568 265.817 330.832 264.633 329.404C259.368 325.156 252.615 321.273 244.372 317.758ZM77.3979 357.908C80.3284 351.963 90.3079 294.02 90.3079 294.02L111.205 294.102C111.205 294.102 91.8506 356.583 90.3079 360.406C88.304 365.372 91.708 372.587 94.0161 377.48C94.3732 378.237 94.704 378.938 94.9846 379.567C91.7819 381 90.2434 379.268 88.6215 377.442C86.7896 375.379 84.8511 373.197 80.2879 375.319C78.5249 376.14 76.8567 377.109 75.2268 378.057C69.5968 381.329 64.4248 384.336 57.389 379.994C56.2736 379.306 55.0513 376.715 58.0046 374.69C65.3623 369.645 75.9653 360.815 77.3979 357.908Z" fill="#B28B67"/>
<path fill-rule="evenodd" clip-rule="evenodd" d="M149.695 206.332L158.342 204.849C173.23 242.039 199.222 275.831 236.318 306.225L208.286 340.281C171.194 297.005 148.33 252.355 149.695 206.332Z" fill="#191847"/>
<path fill-rule="evenodd" clip-rule="evenodd" d="M112 315H189C189 315 162.241 249.938 162.241 204.461L139.014 201C120.76 230.358 115.605 266.505 112 315Z" fill="#DDE3E9"/>
<path fill-rule="evenodd" clip-rule="evenodd" d="M77 348C85.4209 252.996 138.504 201 138.504 201L138.522 201.016C138.525 201.011 138.529 201.005 138.532 201H140.048C142.769 201.094 148.338 201.338 148.338 201.338L153.95 217.377C154.841 246.71 164.351 335.606 164.351 335.606H113.95C114.036 339.682 114.225 343.815 114.531 348H77Z" fill="#2F3676"/>
<path fill-rule="evenodd" clip-rule="evenodd" d="M113.958 336C113.556 318.25 115.131 301.584 117.758 286.502C119.132 304.399 122.003 325.933 128 336H113.958Z" fill="black" fill-opacity="0.1"/>
<path fill-rule="evenodd" clip-rule="evenodd" d="M125.111 305L150 293.429V305H125.111Z" fill="white" fill-opacity="0.2"/>
<path fill-rule="evenodd" clip-rule="evenodd" d="M372.57 255.602C416.704 255.602 452.482 219.855 452.482 175.76C452.482 131.664 416.704 95.9179 372.57 95.9179C328.435 95.9179 292.658 131.664 292.658 175.76C292.658 219.855 328.435 255.602 372.57 255.602Z" fill="#AADDC7"/>
<mask id="mask0" mask-type="alpha" maskUnits="userSpaceOnUse" x="266" y="58" width="216" height="200">
<path fill-rule="evenodd" clip-rule="evenodd" d="M372.57 255.602C409.192 255.602 440.061 230.988 449.508 197.414C451.445 190.528 481.493 167.823 481.493 160.318C481.493 116.223 416.704 58 372.57 58C328.435 58 236.482 236.633 275.367 255.602C298.592 266.931 313.827 230.061 316.925 233.064C331.313 247.014 350.938 255.602 372.57 255.602Z" fill="white"/>
</mask>
<g mask="url(#mask0)">
<path fill-rule="evenodd" clip-rule="evenodd" d="M376.475 104.807C381.598 107.892 386.632 109.383 388.995 108.774C394.921 107.248 395.466 85.5899 390.881 77.0514C386.296 68.513 362.726 64.7914 361.538 81.7088C361.125 87.5802 363.593 92.8202 367.239 97.0959L360.702 127.538H379.691L376.475 104.807Z" fill="#784931"/>
<path fill-rule="evenodd" clip-rule="evenodd" d="M390.307 72.2426C390.649 71.2579 392.98 68.207 388.828 65.3005C388.082 64.7782 386.849 65.2988 385.781 64.9691C384.978 64.721 384.707 63.601 383.786 63.4056C382.83 63.2029 381.789 64.1216 380.709 64.0409C380.048 63.9914 379.027 62.9611 378.338 62.9056C377.108 62.8065 375.991 63.9663 374.79 64.0409C374.093 64.0841 373.285 62.9648 372.594 62.9056C370.912 62.7614 369.38 63.5449 367.898 63.7825C366.532 64.0014 365.897 66.7984 364.891 67.4594C361.733 69.5337 359.259 70.1137 356.697 72.2426C353.651 74.7735 353.068 76.6563 351.806 78.3428C350.545 80.0292 349.765 85.9711 350.501 89.7791C350.935 92.0253 352.066 98.1599 354.593 100.535C358.052 103.786 365.089 104.749 365.713 104.315C368.606 102.307 375.091 91.196 379.691 87.2694C383.073 84.3819 388.188 78.3428 390.307 72.2426Z" fill="#FF9B21"/>
<mask id="mask1" mask-type="alpha" maskUnits="userSpaceOnUse" x="350" y="62" width="42" height="43">
<path fill-rule="evenodd" clip-rule="evenodd" d="M390.307 72.2426C390.649 71.2579 392.98 68.207 388.828 65.3005C388.082 64.7782 386.849 65.2988 385.781 64.9691C384.978 64.721 384.707 63.601 383.786 63.4056C382.83 63.2029 381.789 64.1216 380.709 64.0409C380.048 63.9914 379.027 62.9611 378.338 62.9056C377.108 62.8065 375.991 63.9663 374.79 64.0409C374.093 64.0841 373.285 62.9648 372.594 62.9056C370.912 62.7614 369.38 63.5449 367.898 63.7825C366.532 64.0014 365.897 66.7984 364.891 67.4594C361.733 69.5337 359.259 70.1137 356.697 72.2426C353.651 74.7735 353.068 76.6563 351.806 78.3428C350.545 80.0292 349.765 85.9711 350.501 89.7791C350.935 92.0253 352.066 98.1599 354.593 100.535C358.052 103.786 365.089 104.749 365.713 104.315C368.606 102.307 375.091 91.196 379.691 87.2694C383.073 84.3819 388.188 78.3428 390.307 72.2426Z" fill="white"/>
</mask>
<g mask="url(#mask1)">
<path fill-rule="evenodd" clip-rule="evenodd" d="M370.619 84.5713C372.75 78.0368 376.621 61.7211 376.621 61.7211L374.282 61.9666C374.282 61.9666 372.43 72.3769 370.527 79.1208C368.786 85.2863 366.785 91.3314 365.211 96.0842C363.038 102.651 361.68 106.751 362.955 105.294C363.108 105.119 363.261 104.916 363.414 104.685C363.428 104.715 363.45 104.733 363.48 104.738C363.391 104.915 363.513 104.837 363.879 104.499L363.893 104.486L363.91 104.47C366.104 102.431 372.325 95.323 378.838 83.5628C381.843 78.137 387.355 64.3906 387.355 64.3906L385.166 63.4551C385.166 63.4551 381.526 74.3159 378.838 79.5822C374.112 88.842 369.68 95.728 366.797 99.9494C367.992 97.5678 369.398 94.3761 371.152 90.3949L371.152 90.3948C371.924 88.6416 372.764 86.7353 373.683 84.6776C376.485 78.4015 382.042 62.5794 382.042 62.5794H379.691C379.691 62.5794 376.76 72.7392 374.161 79.2473C371.785 85.1973 369.162 91.0002 367.1 95.5627L367.1 95.5627C367.065 95.64 367.031 95.7168 366.996 95.7934C367.516 94.2161 368.079 92.4586 368.7 90.5214C369.285 88.6972 369.921 86.7136 370.619 84.5713Z" fill="black" fill-opacity="0.2"/>
</g>
<path fill-rule="evenodd" clip-rule="evenodd" d="M345.387 193.151C346.814 212.605 438.72 269.881 439.256 271.488C439.614 272.56 410.649 339.221 410.649 339.221L418.683 342.34C418.683 342.34 463.11 271.741 460.828 264.218C457.561 253.448 389.519 193.358 389.519 193.358L345.387 193.151Z" fill="#B28B67"/>
<path fill-rule="evenodd" clip-rule="evenodd" d="M412.763 329.184L425.88 333.955C453.539 302.775 464.38 277.049 462.404 263.941C460.427 250.833 391.341 193.199 391.341 193.199L344.446 193.199C346.046 238.252 431.232 271.66 432.372 273.579C433.511 275.499 422.298 294.303 412.763 329.184Z" fill="#2F3676"/>
<path fill-rule="evenodd" clip-rule="evenodd" d="M355.954 193.151L315.012 291.354L274.773 374.377H284.267L388.136 193.151H355.954Z" fill="#997659"/>
<path fill-rule="evenodd" clip-rule="evenodd" d="M278.407 357.13L299.502 361.082C315.813 337.123 384.074 238.884 391.559 193.151H344.596C319.602 226.211 293.954 332.774 278.407 357.13Z" fill="#5C63AB"/>
<path fill-rule="evenodd" clip-rule="evenodd" d="M455.832 158.925L427.163 171.505L436.317 183.222L457.789 166.774C468.514 164.806 473.487 163.115 472.71 161.702C472.055 160.51 470.836 160.443 469.713 160.381C468.838 160.332 468.021 160.287 467.575 159.717C466.557 158.413 469.07 154.385 471.62 150.665C474.169 146.945 471.78 147.079 470.381 147.524C465.704 150.125 460.854 153.925 455.832 158.925ZM327.471 178.183L311.258 174.969C300.262 203.925 293.706 219.793 291.591 222.573C290.04 224.611 280.475 229.86 274.001 232.664C271.402 233.789 271.96 235.983 272.722 236.685C277.53 241.113 281.999 239.561 286.865 237.872C288.273 237.383 289.715 236.882 291.207 236.512C295.071 235.553 296.247 237.538 297.358 239.414C298.341 241.075 299.275 242.65 301.978 242.022C301.855 241.492 301.704 240.898 301.541 240.257C300.487 236.114 298.933 230.005 301.238 226.456C302.421 224.634 311.166 208.543 327.471 178.183Z" fill="#915B3C"/>
<path fill-rule="evenodd" clip-rule="evenodd" d="M371.537 114.362L378.379 113.19C393.281 127.632 399.362 162.331 409.293 166.924C418.682 171.266 431.992 167.064 447.814 161.39L452.659 172.206C438.284 187.744 407.659 200.872 395.246 193.378C375.399 181.396 370.818 138.601 371.537 114.362Z" fill="#1F28CF"/>
<path fill-rule="evenodd" clip-rule="evenodd" d="M341.713 200.266C341.713 200.266 382.861 200.266 402.249 200.266C405.015 200.266 404.494 196.275 404.094 194.261C399.479 171.02 381.464 145.967 381.464 112.883L364.002 110.147C349.559 133.355 344.565 161.929 341.713 200.266Z" fill="#DDE3E9"/>
<path fill-rule="evenodd" clip-rule="evenodd" d="M363.075 110.147H362.876C323.71 134.261 300.04 171.642 291.866 222.289L304.555 224.772C312.961 214.988 323.334 198.975 335.675 176.735C331.888 190.132 329.124 203.873 328.262 216.867H382.754C393.303 190.23 369.79 110.147 369.79 110.147H366.028H363.075Z" fill="#2B44FF"/>
</g>
</svg>
